<mxfile host="Electron" modified="2023-09-01T18:03:12.900Z" agent="Mozilla/5.0 (Macintosh; Intel Mac OS X 10_15_7) AppleWebKit/537.36 (KHTML, like Gecko) draw.io/21.6.8 Chrome/114.0.5735.289 Electron/25.5.0 Safari/537.36" etag="mWTykUVOI2edhUE4CgOv" version="21.6.8" type="device">
  <diagram name="Page-1" id="7BkvJl0RW-mrR0K_rZ88">
    <mxGraphModel dx="2338" dy="1019" grid="1" gridSize="10" guides="1" tooltips="1" connect="1" arrows="1" fold="1" page="0" pageScale="1" pageWidth="850" pageHeight="1100" math="0" shadow="0">
      <root>
        <mxCell id="0" />
        <mxCell id="1" parent="0" />
        <mxCell id="BmXjW9NBeoYo8Y6u9fAj-1" value="&lt;font style=&quot;font-size: 120px;&quot; color=&quot;#cc0000&quot;&gt;Rough Cut&lt;/font&gt;" style="text;html=1;strokeColor=none;fillColor=none;align=center;verticalAlign=middle;whiteSpace=wrap;rounded=0;" parent="1" vertex="1">
          <mxGeometry x="120" y="440" width="610" height="150" as="geometry" />
        </mxCell>
        <mxCell id="_gY0tY6NyQK9bgzLSFUr-1" value="&lt;font color=&quot;#0000cc&quot; style=&quot;font-size: 72px;&quot;&gt;no animations&lt;/font&gt;" style="text;html=1;strokeColor=none;fillColor=none;align=center;verticalAlign=middle;whiteSpace=wrap;rounded=0;" vertex="1" parent="1">
          <mxGeometry x="120" y="590" width="610" height="150" as="geometry" />
        </mxCell>
      </root>
    </mxGraphModel>
  </diagram>
</mxfile>
